<?xml version="1.0" encoding="UTF-8" standalone="no"?>
<svg width="14px" height="14px" viewBox="0 0 14 14" version="1.1" xmlns="http://www.w3.org/2000/svg" xmlns:xlink="http://www.w3.org/1999/xlink" xmlns:sketch="http://www.bohemiancoding.com/sketch/ns">
    <!-- Generator: Sketch 3.4.3 (16044) - http://www.bohemiancoding.com/sketch -->
    <title>forum</title>
    <desc>Created with Sketch.</desc>
    <defs></defs>
    <g id="Page-1" stroke="none" stroke-width="1" fill="none" fill-rule="evenodd" sketch:type="MSPage">
        <g id="Main-1" sketch:type="MSArtboardGroup" transform="translate(-797.000000, -604.000000)" fill="#DD2244">
            <path d="M810.3,606.8 L808.9,606.8 L808.9,613.1 L799.8,613.1 L799.8,614.5 C799.8,614.92 800.08,615.2 800.5,615.2 L808.2,615.2 L811,618 L811,607.5 C811,607.08 810.72,606.8 810.3,606.8 L810.3,606.8 L810.3,606.8 Z M807.5,611 L807.5,604.7 C807.5,604.28 807.22,604 806.8,604 L797.7,604 C797.28,604 797,604.28 797,604.7 L797,614.5 L799.8,611.7 L806.8,611.7 C807.22,611.7 807.5,611.42 807.5,611 L807.5,611 L807.5,611 Z" id="forum" sketch:type="MSShapeGroup"></path>
        </g>
    </g>
</svg>