<?xml version="1.0" encoding="UTF-8" standalone="no"?>
<svg width="16px" height="13px" viewBox="0 0 16 13" version="1.1" xmlns="http://www.w3.org/2000/svg" xmlns:xlink="http://www.w3.org/1999/xlink" xmlns:sketch="http://www.bohemiancoding.com/sketch/ns">
    <!-- Generator: Sketch 3.4.3 (16044) - http://www.bohemiancoding.com/sketch -->
    <title>twitter</title>
    <desc>Created with Sketch.</desc>
    <defs></defs>
    <g id="Page-1" stroke="none" stroke-width="1" fill="none" fill-rule="evenodd" sketch:type="MSPage">
        <g id="Main-1" sketch:type="MSArtboardGroup" transform="translate(-549.000000, -603.000000)" fill="#55ACEE">
            <g id="twitter" sketch:type="MSLayerGroup" transform="translate(549.000000, 603.000000)">
                <path d="M15.6020645,1.46787097 C15.0405161,1.71612903 14.4407742,1.88387097 13.8085161,1.96129032 C14.4536774,1.57419355 14.9501935,0.961032258 15.1824516,0.232258065 C14.5790968,0.590451613 13.9117419,0.851612903 13.1989677,0.990451613 C12.6276129,0.380387097 11.8147097,0 10.9181935,0 C9.19225806,0 7.7956129,1.39974194 7.7956129,3.12567742 C7.7956129,3.37083871 7.82141935,3.60980645 7.87612903,3.83896774 C5.27948387,3.70993548 2.976,2.46451613 1.43741935,0.57083871 C1.16954839,1.03225806 1.01470968,1.57109677 1.01470968,2.14193548 C1.01470968,3.22580645 1.56954839,4.18374194 2.40825806,4.74529032 C1.89212903,4.7323871 1.40851613,4.59045161 0.988903226,4.35458065 L0.988903226,4.39380645 C0.988903226,5.90967742 2.06658065,7.17109677 3.49522581,7.45806452 C3.23406452,7.52877419 2.95690323,7.56748387 2.67303226,7.56748387 C2.47277419,7.56748387 2.27612903,7.5483871 2.08567742,7.50967742 C2.48258065,8.75148387 3.63767742,9.65470968 5.00541935,9.68051613 C3.93754839,10.5192258 2.58890323,11.0193548 1.12464516,11.0193548 C0.872774194,11.0193548 0.624516129,11.0033548 0.379354839,10.9744516 C1.75690323,11.8709677 3.39870968,12.3870968 5.15974194,12.3870968 C10.9114839,12.3870968 14.0536774,7.62270968 14.0536774,3.49006452 C14.0536774,3.35483871 14.0500645,3.21909677 14.043871,3.08696774 C14.6534194,2.64516129 15.1824516,2.09703226 15.6020645,1.46787097" id="Fill-122" sketch:type="MSShapeGroup"></path>
            </g>
        </g>
    </g>
</svg>