<?xml version="1.0" encoding="UTF-8" standalone="no"?>
<svg width="18px" height="11px" viewBox="0 0 18 11" version="1.1" xmlns="http://www.w3.org/2000/svg" xmlns:xlink="http://www.w3.org/1999/xlink" xmlns:sketch="http://www.bohemiancoding.com/sketch/ns">
    <!-- Generator: Sketch 3.4.3 (16044) - http://www.bohemiancoding.com/sketch -->
    <title>vk</title>
    <desc>Created with Sketch.</desc>
    <defs></defs>
    <g id="Page-1" stroke="none" stroke-width="1" fill="none" fill-rule="evenodd" sketch:type="MSPage">
        <g id="Main-1" sketch:type="MSArtboardGroup" transform="translate(-668.000000, -604.000000)" fill="#52739B">
            <g id="vk" sketch:type="MSLayerGroup" transform="translate(668.000000, 604.000000)">
                <path d="M8.79436364,10.3205455 L9.86890909,10.3205455 C9.86890909,10.3205455 10.1934545,10.2850909 10.3592727,10.1061818 C10.512,9.94254545 10.5070909,9.63436364 10.5070909,9.63436364 C10.5070909,9.63436364 10.4858182,8.19272727 11.1550909,7.98054545 C11.8145455,7.77109091 12.6616364,9.37363636 13.5594545,9.99 C14.238,10.4563636 14.754,10.3543636 14.754,10.3543636 L17.1545455,10.3205455 C17.1545455,10.3205455 18.4101818,10.2430909 17.8145455,9.25581818 C17.766,9.17509091 17.4676364,8.52545455 16.0298182,7.19072727 C14.5243636,5.79381818 14.7261818,6.01963636 16.5392727,3.60327273 C17.6432727,2.13163636 18.0850909,1.23327273 17.9470909,0.848181818 C17.8156364,0.481636364 17.0034545,0.578727273 17.0034545,0.578727273 L14.3007273,0.595090909 C14.3007273,0.595090909 14.1,0.567818182 13.9516364,0.656727273 C13.8065455,0.744 13.7132727,0.946909091 13.7132727,0.946909091 C13.7132727,0.946909091 13.2850909,2.08581818 12.7150909,3.054 C11.5112727,5.09781818 11.0301818,5.20581818 10.8332727,5.07872727 C10.3756364,4.78309091 10.4901818,3.89072727 10.4901818,3.25690909 C10.4901818,1.27636364 10.7907273,0.450545455 9.90490909,0.236727273 C9.61145455,0.165818182 9.39490909,0.118909091 8.64327273,0.111272727 C7.67890909,0.101454545 6.86290909,0.114545455 6.40090909,0.340909091 C6.09327273,0.491454545 5.856,0.826909091 6.00054545,0.846 C6.17945455,0.87 6.58363636,0.955090909 6.79854545,1.24690909 C7.07509091,1.62381818 7.06581818,2.47036364 7.06581818,2.47036364 C7.06581818,2.47036364 7.22454545,4.80163636 6.69381818,5.09072727 C6.32945455,5.28981818 5.82981818,4.884 4.75690909,3.03 C4.20709091,2.08036364 3.792,1.03036364 3.792,1.03036364 C3.792,1.03036364 3.71236364,0.834545455 3.56945455,0.729272727 C3.396,0.602181818 3.15436364,0.561818182 3.15436364,0.561818182 L0.585818182,0.578727273 C0.585818182,0.578727273 0.200181818,0.589636364 0.0589090909,0.757090909 C-0.0670909091,0.906 0.0485454545,1.21472727 0.0485454545,1.21472727 C0.0485454545,1.21472727 2.05909091,5.91872727 4.33636364,8.28927273 C6.42381818,10.4634545 8.79436364,10.3205455 8.79436364,10.3205455" id="Fill-128" sketch:type="MSShapeGroup"></path>
            </g>
        </g>
    </g>
</svg>