<svg xmlns="http://www.w3.org/2000/svg" version="1.1" height="86" width="260"><g transform="translate(45,-154.6)" fill="#000000"><path d="M66.94 235.46L65.60 229.58L58.59 229.58L58.28 210.81L58.28 167.28C58.28 162.23 56.73 161.20 52.09 161.20C47.03 161.20 38.89 162.02 32.08 163.26L32.08 171.10L41.05 171.10L41.05 183.37C39.09 183.27 36.82 183.27 33.73 183.27C16.50 183.27 3.09 195.03 3.09 213.90C3.09 236.49 14.54 240.72 25.99 240.72C33.01 240.72 37.54 235.87 40.74 232.37C40.74 236.29 42.80 240.83 48.17 240.83C57.14 240.83 61.37 238.45 66.94 235.46ZM41.05 210.71L40.64 226.28C37.96 227.00 35.38 227.52 32.28 227.52C24.86 227.52 21.14 221.54 21.14 211.64C21.14 199.67 24.55 191.83 33.42 191.83C36.62 191.83 39.09 192.24 41.05 192.66ZM126.97 214.11L126.97 209.06C126.97 194.51 120.27 182.14 101.60 182.14C83.34 182.14 72.10 198.43 72.10 213.18C72.10 235.87 84.17 241.34 103.45 241.34C110.05 241.34 118.72 238.87 125.94 234.95L123.05 225.87C115.42 227.52 109.74 227.73 106.03 227.73C97.06 227.73 90.56 224.43 90.04 214.11ZM109.02 206.58L89.53 206.58C89.53 199.26 92.93 191.21 99.74 191.21C106.75 191.21 109.02 197.92 109.02 206.58ZM183.60 169.04C183.60 162.64 175.96 160.79 164.93 160.79C153.48 160.79 139.97 170.58 139.97 182.14L139.97 183.68L131.71 185.54L131.71 191.94L139.97 191.94L139.97 210.71L139.76 226.18C139.66 228.65 139.35 231.65 136.87 232.37C136.87 232.37 133.06 233.30 131.92 233.71C131.92 235.67 131.82 237.63 132.33 240L171.73 240C172.35 237.63 172.66 235.26 172.66 233.50L162.35 231.54C159.67 231.03 157.71 229.69 157.71 226.59L157.29 210.71L157.29 191.94L169.57 191.94L169.57 183.68L157.29 183.68L157.29 178.73C157.29 173.27 161.52 169.76 166.58 169.76C168.85 169.76 172.56 174.40 175.86 179.15C179.16 177.60 183.60 174.92 183.60 169.04ZM176.58 240L210.31 240C210.83 237.94 210.93 236.18 210.93 233.50L204.12 231.54C203.09 231.23 202.57 230.10 202.47 226.90L202.37 211.74L202.37 187.29C202.37 183.17 200.30 182.34 196.90 182.34C191.85 182.34 182.98 183.06 176.17 184.51L176.17 192.24L185.04 192.24L185.04 211.74L184.73 227.73C184.73 230.20 184.21 231.23 182.25 231.75L176.17 233.50C176.17 236.39 176.27 238.66 176.58 240ZM193.19 174.71C195.46 174.71 203.30 166.25 203.30 164.71C203.30 162.64 195.04 154.70 193.19 154.70C191.12 154.70 183.29 162.33 183.29 164.71C183.29 166.67 191.02 174.71 193.19 174.71Z"/></g><g rel="mainfill" transform="translate(-20,-7) scale(0.85)" fill="#61B594"><g><g fill="#61B594"><polygon fill="" points="34.82574,91 44,56 25,56 47,15 67,15 53,41 75,41   "/></g></g></g></svg>
