<?xml version="1.0" encoding="utf-8"?>
<!-- Generator: Adobe Illustrator 18.1.1, SVG Export Plug-In . SVG Version: 6.00 Build 0)  -->
<svg version="1.1" id="Minor" xmlns="http://www.w3.org/2000/svg" xmlns:xlink="http://www.w3.org/1999/xlink" x="0px" y="0px"
	 viewBox="0 0 64 64" enable-background="new 0 0 64 64" xml:space="preserve">

<path fill="#1E88E5" d="M49.676,10.565c-1.556-1.556-4.101-1.556-5.657,0L32,22.584L19.981,10.565c-1.556-1.556-4.101-1.556-5.657,0
	c-1.556,1.556-1.556,4.101,0,5.657l14.769,14.769c0.798,0.798,1.855,1.18,2.907,1.159c1.051,0.02,2.109-0.361,2.907-1.159
	l14.769-14.769C51.232,14.666,51.232,12.121,49.676,10.565z"/>
<path fill="#4CA0EA" d="M14.241,30.528L14.241,30.528c-1.556,1.556-1.556,4.101,0,5.657L29.01,50.954
	c1.556,1.556,4.101,1.556,5.657,0l0,0c1.556-1.556,1.556-4.101,0-5.657L19.897,30.528C18.342,28.972,15.796,28.972,14.241,30.528z"
	/>
<path fill="#4CA0EA" d="M49.593,30.528L49.593,30.528c1.556,1.556,1.556,4.101,0,5.657L34.824,50.954
	c-1.556,1.556-4.101,1.556-5.657,0l0,0c-1.556-1.556-1.556-4.101,0-5.657l14.769-14.769C45.491,28.972,48.037,28.972,49.593,30.528z
	"/>
</svg>
