<?xml version="1.0" encoding="utf-8"?>
<!-- Generator: Adobe Illustrator 18.1.1, SVG Export Plug-In . SVG Version: 6.00 Build 0)  -->
<svg version="1.1" id="Layer_1" xmlns="http://www.w3.org/2000/svg" xmlns:xlink="http://www.w3.org/1999/xlink" x="0px" y="0px"
	 width="1092.7px" height="486.9px" viewBox="673.3 452.1 1092.7 486.9" enable-background="new 673.3 452.1 1092.7 486.9"
	 xml:space="preserve">
<g>
	<path fill="#333333" d="M923.3,789.8L893,837.3h-6.3l-30.3-47.5v69.4h-17.3V754.7H852l37.9,57.5l37.8-57.5h12.8v104.5h-17.2V789.8z
		"/>
	<path fill="#333333" d="M1019,859.2c-1.3,0.6-3.9,0.7-6,0.7c-7,0-11.8-3.1-14.2-8.2c-5.7,5.7-13.3,8.8-21,8.8
		c-14,0-21.6-10.1-21.6-20.9c0-16,16.7-24.6,34.8-24.6c3.4,0,5.1,0.3,6.1,0.4v-6c0-6.1-4.8-12.1-13.3-12.1c-5.5,0-12.1,2.5-15.4,5.8
		l-9-9c6.4-6.3,15.4-10.3,26-10.3c17.6,0,28.2,11,28.2,25.5v33.1c0,3.4,2.2,5.7,5.4,5.7V859.2z M997,841v-14.5
		c-1.2-0.3-2.7-0.4-4.6-0.4c-10.6,0-19.6,4.5-19.6,11.8c0,4,2.8,9.3,10.3,9.3C987.5,847.1,993.3,845.2,997,841z"/>
	<path fill="#333333" d="M1026.4,785.3h8.8v-16.4h17.3v16.4h17.3v13h-17.3v36c0,7.3,4.5,12.2,11.3,12.2c2.1,0,4.2-0.4,6-1.3v13.7
		c-2.8,1.3-6,1.6-9,1.6c-15.8,0-25.7-10.3-25.7-26.3v-36h-8.8V785.3z"/>
	<path fill="#333333" d="M1122.9,784.6V799c-1.9-0.6-4-0.7-6-0.7c-7.3,0-13.4,3.9-17.2,9.6v51.3h-16.7v-73.9h16.7v7.9
		c5.1-5.5,11.5-9,18.4-9C1119.8,784.3,1121.3,784.4,1122.9,784.6z"/>
	<path fill="#333333" d="M1149.1,827.1c1.6,11.3,9.6,18.7,22.2,18.7c7.3,0,13.1-2.2,17-6.4l9.9,10.1c-6.7,7-16.3,11-28.1,11
		c-23.1,0-38.8-15.4-38.8-38.8c0-22.2,14.3-37.8,36-37.8c22.1,0,34.3,16.3,34.3,43.1H1149.1z M1149.1,815.6h36
		c-1.5-10.4-7.2-17.3-17.3-17.3C1157.6,798.3,1150.7,805.2,1149.1,815.6z"/>
	<path fill="#333333" d="M1249.9,803.5c-2.8-3-7.9-5.7-12.4-5.7c-6,0-8.4,4.6-8.4,7.9c0,13,32.4,9,32.4,31.6
		c0,12.1-9,23.1-25.8,23.1c-9.9,0-19.3-3.9-25.5-10.6l10.1-10.3c3.4,4.2,9,7.2,14.3,7.2c7.3,0,10.3-5.4,10.3-9.3
		c0-12.4-32.4-7.9-32.4-31.5c0-11.5,7.8-22.1,23.6-22.1c9.1,0,17.9,3.3,24,9.4L1249.9,803.5z"/>
	<path fill="#333333" d="M1292.1,747.3v43.6c5.5-4.5,12.5-6.9,20.3-6.9c17,0,27.6,12.5,27.6,31v44.2h-16.6V815
		c0-9.6-6-16.3-15.2-16.3c-6.9,0-12.2,2.2-16.1,6.1v54.3h-16.7V747.3H1292.1z"/>
	<path fill="#333333" d="M1357.8,859.2V747.3h16.7v69l25.2-30.9h19.9l-28.8,34.5l31.9,39.4h-19.6l-28.7-35.7v35.7H1357.8z"/>
	<path fill="#333333" d="M1491.3,859.2c-1.3,0.6-3.9,0.7-6,0.7c-7,0-11.8-3.1-14.2-8.2c-5.7,5.7-13.3,8.8-21,8.8
		c-14,0-21.6-10.1-21.6-20.9c0-16,16.7-24.6,34.8-24.6c3.4,0,5.1,0.3,6.1,0.4v-6c0-6.1-4.8-12.1-13.3-12.1c-5.5,0-12.1,2.5-15.4,5.8
		l-9-9c6.4-6.3,15.4-10.3,26-10.3c17.6,0,28.2,11,28.2,25.5v33.1c0,3.4,2.2,5.7,5.4,5.7V859.2z M1469.3,841v-14.5
		c-1.2-0.3-2.7-0.4-4.6-0.4c-10.6,0-19.6,4.5-19.6,11.8c0,4,2.8,9.3,10.3,9.3C1459.8,847.1,1465.6,845.2,1469.3,841z"/>
	<path fill="#333333" d="M1515.5,840.7c5.5,0,10,4.3,10,10c0,5.5-4.5,9.9-10,9.9c-5.5,0-9.9-4.3-9.9-9.9
		C1505.7,845,1510,840.7,1515.5,840.7z"/>
	<path fill="#333333" d="M1534,885.6c4.8,0,7.9-2.8,7.9-7.9v-92.4h16.7v92.8c0,11.5-6.4,19.1-18.1,19.1c-2.2,0-5.1-0.1-6.6-0.7
		V885.6z M1550.3,753.1c5.7,0,10.3,4.5,10.3,10c0,5.7-4.6,10.3-10.3,10.3s-10-4.6-10-10.3C1540.3,757.6,1544.6,753.1,1550.3,753.1z"
		/>
	<path fill="#333333" d="M1611.2,803.5c-2.8-3-7.9-5.7-12.4-5.7c-6,0-8.4,4.6-8.4,7.9c0,13,32.4,9,32.4,31.6
		c0,12.1-9,23.1-25.8,23.1c-9.9,0-19.3-3.9-25.5-10.6l10.1-10.3c3.4,4.2,9,7.2,14.3,7.2c7.3,0,10.3-5.4,10.3-9.3
		c0-12.4-32.4-7.9-32.4-31.5c0-11.5,7.8-22.1,23.6-22.1c9.1,0,17.9,3.3,24,9.4L1611.2,803.5z"/>
</g>
<g>
	<path fill="#333333" d="M1249.9,609.8c-2.2-10.4-6.8-16.1-5.8-29.1c1.4-17.9-0.8-22.3-2.1-25.2c-1.3-2.9-3.1-5.4-5.5-7.6
		c-2.4-2.2-5.3-3.9-8.6-5.1c-3.4-1.2-6.8-1.9-11-1.9v0v0c-4.2,0-7.6,0.6-11,1.9c-3.4,1.2-6.3,2.9-8.6,5.1c-2.4,2.2-4.2,4.7-5.5,7.6
		c-1.3,2.9-3.5,7.3-2.1,25.2c1,13-3.7,18.7-5.8,29.1c-4.4,21,1,51.5,5.7,54.1c3.3,2.5,7.3,4.3,11.9,5.6c4.6,1.3,10,2,15.4,2v0v0
		c5.4,0,10.8-0.7,15.4-2c4.6-1.3,8.6-3.2,11.9-5.6C1249,661.4,1254.3,630.8,1249.9,609.8z"/>
	<linearGradient id="SVGID_1_" gradientUnits="userSpaceOnUse" x1="1218.3477" y1="673.2876" x2="1272.2996" y2="673.2876">
		<stop  offset="0" style="stop-color:#FFEB3B"/>
		<stop  offset="1" style="stop-color:#66BB6A"/>
	</linearGradient>
	<path fill="url(#SVGID_1_)" d="M1252.1,650.2c-17.4,3.4-37.5,10.9-41.3,28.2c-3,13.3,1.1,25.2,13.8,27.7c5.6-0.4,11.1-1.3,16-2.7
		c7.1-2,13.2-4.9,18.3-8.7c5.2-2.8,10.9-27.8,11.2-53.6c0-0.7-0.8-0.9-1.2-0.4C1264.7,645.6,1258.4,649,1252.1,650.2z"/>
	<linearGradient id="SVGID_2_" gradientUnits="userSpaceOnUse" x1="1174.7805" y1="527.7781" x2="1257.7723" y2="527.7781">
		<stop  offset="0" style="stop-color:#FFEB3B"/>
		<stop  offset="1" style="stop-color:#66BB6A"/>
	</linearGradient>
	<path fill="url(#SVGID_2_)" d="M1174.8,542.5c5.6,16,33.1,0,51.5-5.3c9.2-2.7,20.5-4.8,28.3-1.6c0.4,0.2,0.7,0.3,1.1,0.6
		c1.1,0.6,2.4-0.3,2.1-1.5c-0.7-2.9-1.6-4.7-2.3-6.2c-2-4.4-4.8-8.3-8.4-11.6c-3.6-3.3-8.1-5.9-13.2-7.8c-5.2-1.9-10.5-2.9-16.9-2.9
		v0l0,0c-6.4,0-11.7,1-16.9,2.9c-5.2,1.9-9.6,4.5-13.2,7.8c-3.6,3.3-6.4,7.2-8.4,11.6C1177.2,531,1175.5,534.5,1174.8,542.5
		L1174.8,542.5z"/>
	<linearGradient id="SVGID_3_" gradientUnits="userSpaceOnUse" x1="1198.4211" y1="593.972" x2="1270.7006" y2="593.972">
		<stop  offset="0" style="stop-color:#FFEB3B"/>
		<stop  offset="1" style="stop-color:#66BB6A"/>
	</linearGradient>
	<path fill="url(#SVGID_3_)" d="M1228.9,622.2c9.6-1.8,18.8-7.7,28.5-7.6c3.6,0,6.7,0.4,9.2,1.5c0.8,0.3,1.7-0.4,1.6-1.3
		c-0.2-1-0.4-2-0.6-3c-3.3-16-10.5-24.6-8.9-44.6c0-0.6,0.1-1.2,0.1-1.8c0.1-0.8-0.9-1.2-1.4-0.6c-2.5,2.9-6,5.4-10.8,7
		c-15.6,5.2-32.8,6.1-45.1,15.9C1185.8,600.1,1187.3,630.1,1228.9,622.2z"/>
	<linearGradient id="SVGID_4_" gradientUnits="userSpaceOnUse" x1="1163.7056" y1="611.1833" x2="1215.9913" y2="611.1833">
		<stop  offset="0" style="stop-color:#00BCD4"/>
		<stop  offset="1" style="stop-color:#9C27B0"/>
	</linearGradient>
	<path fill="url(#SVGID_4_)" d="M1208.3,633.7c-18.2,0-26.4-5.2-31.8-14.2c-3.4-5.7-2.2-23.1,11.4-36.8c3.5-3.5,8.1-5.9,11-9.9
		c2.9-4,3.7-10.2,0.1-13.6c-5.7-1.1-11.4,1.2-17,2.7c-2.3,0.6-4.3,0.8-5.9,0.3c-0.7-0.2-1.4,0.3-1.3,1c0.1,1.2,0.2,2.5,0.3,3.8
		c1.6,20-5.6,28.7-8.9,44.6c-2.7,13.2-3,28.8-1.8,42.9c0.2,2.1,1.4,4.1,3.3,5.1c6.7,3.9,15.2,4.9,21.9,1.2c6-3.3,9.6-10.2,15.8-13
		C1220.1,641.3,1218,633.7,1208.3,633.7z"/>
	<linearGradient id="SVGID_5_" gradientUnits="userSpaceOnUse" x1="1215.5067" y1="554.543" x2="1245.6713" y2="554.543">
		<stop  offset="0" style="stop-color:#9C27B0"/>
		<stop  offset="1" style="stop-color:#FFEB3B"/>
	</linearGradient>
	<path fill="url(#SVGID_5_)" d="M1216.9,559.7c-1.7-1-1.8-3-0.8-4.4c1-1.4,2.9-2.4,4.7-3.2c7.1-3,15.5-4.2,23.6-3.4
		c1.5,1.3,1.5,3.3,0.5,4.8c-1,1.5-2.9,2.6-4.9,3.5c-5.7,2.6-12.5,3.9-19.2,3.6C1219.4,560.5,1218,560.4,1216.9,559.7z"/>
	<linearGradient id="SVGID_6_" gradientUnits="userSpaceOnUse" x1="1230.9718" y1="630.6559" x2="1269.9355" y2="630.6559">
		<stop  offset="0" style="stop-color:#9C27B0"/>
		<stop  offset="1" style="stop-color:#FFEB3B"/>
	</linearGradient>
	<path fill="url(#SVGID_6_)" d="M1269.3,622.8c-0.1-0.7-0.7-1.3-1.4-1.3c-0.4,0-0.8,0-1.2,0c-10.6-0.1-21.1,2.8-30.2,8.3
		c-2.8,1.7-5.8,4.2-5.5,7.6c0.1,0.7,0.3,1.4,0.9,1.9c1.3,1.2,3.1,0.4,4.6-0.2c2.6-1,5.3-1.3,8.1-1.5c5.3-0.5,10.6-1,15.9-1.5
		c2.9-0.3,5.8-0.6,8.3-1.9c0,0,0,0,0,0c0.8-0.4,1.2-1.2,1.2-2.1C1269.8,629,1269.6,625.9,1269.3,622.8z"/>
	<linearGradient id="SVGID_7_" gradientUnits="userSpaceOnUse" x1="1168.3265" y1="689.1581" x2="1197.1974" y2="689.1581">
		<stop  offset="0" style="stop-color:#9C27B0"/>
		<stop  offset="0.9949" style="stop-color:#EF5350"/>
	</linearGradient>
	<path fill="url(#SVGID_7_)" d="M1194.5,703.4c1.4,0.4,2.8-0.7,2.6-2.2c-0.1-1-0.3-2-0.5-2.9c-0.7-3.3-2-6.6-2.7-9.9
		c-0.6-3.1-0.8-6.2-0.7-9.3c0.1-2.8-2.8-5-5.6-4.1c-3,1-6.6,1.3-9.8,1.6c-2.6,0.3-5.2,0.7-7.8,1.2c-1.2,0.3-2,1.4-1.7,2.6
		c2.1,7.7,4.5,13.1,6.9,14.3C1180.6,698.5,1187.1,701.4,1194.5,703.4C1194.5,703.4,1194.5,703.4,1194.5,703.4z"/>
</g>
</svg>
