<?xml version="1.0" encoding="utf-8"?>
<!-- Generator: Adobe Illustrator 18.1.1, SVG Export Plug-In . SVG Version: 6.00 Build 0)  -->
<svg version="1.1" id="Layer_1" xmlns="http://www.w3.org/2000/svg" xmlns:xlink="http://www.w3.org/1999/xlink" x="0px" y="0px"
	 width="783.7px" height="150px" viewBox="1814.9 123.3 783.7 150" enable-background="new 1814.9 123.3 783.7 150"
	 xml:space="preserve">
<g>
	<path fill="#333333" d="M1899,165.8l-30.3,47.5h-6.3l-30.3-47.5v69.4h-17.3V130.7h12.8l37.9,57.5l37.8-57.5h12.8v104.5H1899V165.8z
		"/>
	<path fill="#333333" d="M1994.7,235.2c-1.3,0.6-3.9,0.7-6,0.7c-7,0-11.8-3.1-14.2-8.2c-5.7,5.7-13.3,8.8-21,8.8
		c-14,0-21.6-10.1-21.6-20.9c0-16,16.7-24.6,34.8-24.6c3.4,0,5.1,0.3,6.1,0.4v-6c0-6.1-4.8-12.1-13.3-12.1c-5.5,0-12.1,2.5-15.4,5.8
		l-9-9c6.4-6.3,15.4-10.3,26-10.3c17.6,0,28.2,11,28.2,25.5v33.1c0,3.4,2.2,5.7,5.4,5.7V235.2z M1972.8,217v-14.5
		c-1.2-0.3-2.7-0.4-4.6-0.4c-10.6,0-19.6,4.5-19.6,11.8c0,4,2.8,9.3,10.3,9.3C1963.2,223.1,1969,221.2,1972.8,217z"/>
	<path fill="#333333" d="M2002.1,161.3h8.8v-16.4h17.3v16.4h17.3v13h-17.3v36c0,7.3,4.5,12.2,11.3,12.2c2.1,0,4.2-0.4,6-1.3v13.7
		c-2.8,1.3-6,1.6-9,1.6c-15.8,0-25.7-10.3-25.7-26.3v-36h-8.8V161.3z"/>
	<path fill="#333333" d="M2098.6,160.6v14.5c-1.9-0.6-4-0.7-6-0.7c-7.3,0-13.4,3.9-17.2,9.6v51.3h-16.7v-73.9h16.7v7.9
		c5.1-5.5,11.5-9,18.4-9C2095.5,160.3,2097,160.4,2098.6,160.6z"/>
	<path fill="#333333" d="M2124.8,203.1c1.6,11.3,9.6,18.7,22.2,18.7c7.3,0,13.1-2.2,17-6.4l9.9,10.1c-6.7,7-16.3,11-28.1,11
		c-23.1,0-38.8-15.4-38.8-38.8c0-22.2,14.3-37.8,36-37.8c22.1,0,34.3,16.3,34.3,43.1H2124.8z M2124.8,191.6h36
		c-1.5-10.4-7.2-17.3-17.3-17.3C2133.3,174.3,2126.4,181.2,2124.8,191.6z"/>
	<path fill="#333333" d="M2225.6,179.5c-2.8-3-7.9-5.7-12.4-5.7c-6,0-8.4,4.6-8.4,7.9c0,13,32.4,9,32.4,31.6
		c0,12.1-9,23.1-25.8,23.1c-9.9,0-19.3-3.9-25.5-10.6l10.1-10.3c3.4,4.2,9,7.2,14.3,7.2c7.3,0,10.3-5.4,10.3-9.3
		c0-12.4-32.4-7.9-32.4-31.5c0-11.5,7.8-22.1,23.6-22.1c9.1,0,17.9,3.3,24,9.4L2225.6,179.5z"/>
	<path fill="#333333" d="M2267.9,123.3v43.6c5.5-4.5,12.5-6.9,20.3-6.9c17,0,27.6,12.5,27.6,31v44.2h-16.6V191
		c0-9.6-6-16.3-15.2-16.3c-6.9,0-12.2,2.2-16.1,6.1v54.3h-16.7V123.3H2267.9z"/>
	<path fill="#333333" d="M2333.5,235.2V123.3h16.7v69l25.2-30.9h19.9l-28.8,34.5l31.9,39.4h-19.6l-28.7-35.7v35.7H2333.5z"/>
	<path fill="#333333" d="M2467,235.2c-1.3,0.6-3.9,0.7-6,0.7c-7,0-11.8-3.1-14.2-8.2c-5.7,5.7-13.3,8.8-21,8.8
		c-14,0-21.6-10.1-21.6-20.9c0-16,16.7-24.6,34.8-24.6c3.4,0,5.1,0.3,6.1,0.4v-6c0-6.1-4.8-12.1-13.3-12.1c-5.5,0-12.1,2.5-15.4,5.8
		l-9-9c6.4-6.3,15.4-10.3,26-10.3c17.6,0,28.2,11,28.2,25.5v33.1c0,3.4,2.2,5.7,5.4,5.7V235.2z M2445.1,217v-14.5
		c-1.2-0.3-2.7-0.4-4.6-0.4c-10.6,0-19.6,4.5-19.6,11.8c0,4,2.8,9.3,10.3,9.3C2435.5,223.1,2441.3,221.2,2445.1,217z"/>
	<path fill="#333333" d="M2491.3,216.7c5.5,0,10,4.3,10,10c0,5.5-4.5,9.9-10,9.9c-5.5,0-9.9-4.3-9.9-9.9
		C2481.4,221,2485.7,216.7,2491.3,216.7z"/>
	<path fill="#333333" d="M2509.8,261.6c4.8,0,7.9-2.8,7.9-7.9v-92.4h16.7v92.8c0,11.5-6.4,19.1-18.1,19.1c-2.2,0-5.1-0.1-6.6-0.7
		V261.6z M2526,129.1c5.7,0,10.3,4.5,10.3,10c0,5.7-4.6,10.3-10.3,10.3c-5.7,0-10-4.6-10-10.3C2516,133.6,2520.4,129.1,2526,129.1z"
		/>
	<path fill="#333333" d="M2586.9,179.5c-2.8-3-7.9-5.7-12.4-5.7c-6,0-8.4,4.6-8.4,7.9c0,13,32.4,9,32.4,31.6
		c0,12.1-9,23.1-25.8,23.1c-9.9,0-19.3-3.9-25.5-10.6l10.1-10.3c3.4,4.2,9,7.2,14.3,7.2c7.3,0,10.3-5.4,10.3-9.3
		c0-12.4-32.4-7.9-32.4-31.5c0-11.5,7.8-22.1,23.6-22.1c9.1,0,17.9,3.3,24,9.4L2586.9,179.5z"/>
</g>
</svg>
