<?xml version="1.0" encoding="utf-8"?>
<!-- Generator: Adobe Illustrator 18.1.1, SVG Export Plug-In . SVG Version: 6.00 Build 0)  -->
<svg version="1.1" id="Layer_1" xmlns="http://www.w3.org/2000/svg" xmlns:xlink="http://www.w3.org/1999/xlink" x="0px" y="0px"
	 width="106.4px" height="200px" viewBox="1819.7 296.2 106.4 200" enable-background="new 1819.7 296.2 106.4 200"
	 xml:space="preserve">
<g>
	<path fill="#333333" d="M1905.9,399.9c-2.2-10.4-6.8-16.1-5.8-29.1c1.4-17.9-0.8-22.3-2.1-25.2c-1.3-2.9-3.1-5.4-5.5-7.6
		c-2.4-2.2-5.3-3.9-8.6-5.1c-3.4-1.2-6.8-1.9-11-1.9v0v0c-4.2,0-7.6,0.6-11,1.9c-3.4,1.2-6.3,2.9-8.6,5.1c-2.4,2.2-4.2,4.7-5.5,7.6
		c-1.3,2.9-3.5,7.3-2.1,25.2c1,13-3.7,18.7-5.8,29.1c-4.4,21,1,51.5,5.7,54.1c3.3,2.5,7.3,4.3,11.9,5.6c4.6,1.3,10,2,15.4,2v0v0
		c5.4,0,10.8-0.7,15.4-2c4.6-1.3,8.6-3.2,11.9-5.6C1904.9,451.4,1910.3,420.9,1905.9,399.9z"/>
	<linearGradient id="SVGID_1_" gradientUnits="userSpaceOnUse" x1="1874.3177" y1="463.3531" x2="1928.2695" y2="463.3531">
		<stop  offset="0" style="stop-color:#FFEB3B"/>
		<stop  offset="1" style="stop-color:#66BB6A"/>
	</linearGradient>
	<path fill="url(#SVGID_1_)" d="M1908,440.3c-17.4,3.4-37.5,10.9-41.3,28.2c-3,13.3,1.1,25.2,13.8,27.7c5.6-0.4,11.1-1.3,16-2.7
		c7.1-2,13.2-4.9,18.3-8.7c5.2-2.8,10.9-27.8,11.2-53.6c0-0.7-0.8-0.9-1.2-0.4C1920.7,435.6,1914.4,439.1,1908,440.3z"/>
	<linearGradient id="SVGID_2_" gradientUnits="userSpaceOnUse" x1="1830.7506" y1="317.8437" x2="1913.7424" y2="317.8437">
		<stop  offset="0" style="stop-color:#FFEB3B"/>
		<stop  offset="1" style="stop-color:#66BB6A"/>
	</linearGradient>
	<path fill="url(#SVGID_2_)" d="M1830.8,332.6c5.6,16,33.1,0,51.5-5.3c9.2-2.7,20.5-4.8,28.3-1.6c0.4,0.2,0.7,0.3,1.1,0.6
		c1.1,0.6,2.4-0.3,2.1-1.5c-0.7-2.9-1.6-4.7-2.3-6.2c-2-4.4-4.8-8.3-8.4-11.6c-3.6-3.3-8.1-5.9-13.2-7.8c-5.2-1.9-10.5-2.9-16.9-2.9
		v0v0c-6.4,0-11.7,1-16.9,2.9c-5.2,1.9-9.6,4.5-13.2,7.8c-3.6,3.3-6.4,7.2-8.4,11.6C1833.1,321.1,1831.5,324.5,1830.8,332.6
		L1830.8,332.6z"/>
	<linearGradient id="SVGID_3_" gradientUnits="userSpaceOnUse" x1="1854.3912" y1="384.0375" x2="1926.6707" y2="384.0375">
		<stop  offset="0" style="stop-color:#FFEB3B"/>
		<stop  offset="1" style="stop-color:#66BB6A"/>
	</linearGradient>
	<path fill="url(#SVGID_3_)" d="M1884.9,412.3c9.6-1.8,18.8-7.7,28.5-7.6c3.6,0,6.7,0.4,9.2,1.5c0.8,0.3,1.7-0.4,1.6-1.3
		c-0.2-1-0.4-2-0.6-3c-3.3-15.9-10.5-24.6-8.9-44.6c0-0.6,0.1-1.2,0.1-1.8c0.1-0.8-0.9-1.2-1.4-0.6c-2.5,2.9-6,5.4-10.8,7
		c-15.6,5.2-32.8,6.1-45.1,15.9C1841.7,390.2,1843.3,420.2,1884.9,412.3z"/>
	<linearGradient id="SVGID_4_" gradientUnits="userSpaceOnUse" x1="1819.6757" y1="401.2488" x2="1871.9613" y2="401.2488">
		<stop  offset="0" style="stop-color:#00BCD4"/>
		<stop  offset="1" style="stop-color:#9C27B0"/>
	</linearGradient>
	<path fill="url(#SVGID_4_)" d="M1864.2,423.8c-18.2,0-26.4-5.2-31.8-14.2c-3.4-5.7-2.2-23.1,11.4-36.8c3.5-3.5,8.1-5.9,11-9.9
		c2.9-4,3.7-10.2,0.1-13.6c-5.7-1.1-11.4,1.2-17,2.7c-2.3,0.6-4.3,0.8-5.9,0.3c-0.7-0.2-1.4,0.3-1.3,1c0.1,1.2,0.2,2.5,0.3,3.8
		c1.6,20-5.6,28.7-8.9,44.6c-2.7,13.2-3,28.8-1.8,42.9c0.2,2.1,1.4,4.1,3.3,5.1c6.7,3.9,15.2,4.9,21.9,1.2c6-3.3,9.6-10.2,15.8-13
		C1876,431.3,1874,423.8,1864.2,423.8z"/>
	<linearGradient id="SVGID_5_" gradientUnits="userSpaceOnUse" x1="1871.4768" y1="344.6085" x2="1901.6414" y2="344.6085">
		<stop  offset="0" style="stop-color:#9C27B0"/>
		<stop  offset="1" style="stop-color:#FFEB3B"/>
	</linearGradient>
	<path fill="url(#SVGID_5_)" d="M1872.9,349.8c-1.7-1-1.8-3-0.8-4.4c1-1.4,2.9-2.4,4.7-3.2c7.1-3,15.5-4.2,23.6-3.4
		c1.5,1.3,1.5,3.3,0.5,4.8c-1,1.5-2.9,2.6-4.9,3.5c-5.7,2.6-12.5,3.9-19.2,3.6C1875.4,350.6,1873.9,350.4,1872.9,349.8z"/>
	<linearGradient id="SVGID_6_" gradientUnits="userSpaceOnUse" x1="1886.9418" y1="420.7214" x2="1925.9056" y2="420.7214">
		<stop  offset="0" style="stop-color:#9C27B0"/>
		<stop  offset="1" style="stop-color:#FFEB3B"/>
	</linearGradient>
	<path fill="url(#SVGID_6_)" d="M1925.2,412.9c-0.1-0.7-0.7-1.3-1.4-1.3c-0.4,0-0.8,0-1.2,0c-10.6-0.1-21.1,2.8-30.2,8.3
		c-2.8,1.7-5.8,4.2-5.5,7.6c0.1,0.7,0.3,1.4,0.9,1.9c1.3,1.2,3.1,0.4,4.6-0.2c2.6-1,5.3-1.3,8.1-1.5c5.3-0.5,10.6-1,15.9-1.5
		c2.9-0.3,5.8-0.6,8.3-1.9c0,0,0,0,0,0c0.8-0.4,1.2-1.2,1.2-2.1C1925.8,419,1925.6,415.9,1925.2,412.9z"/>
	<linearGradient id="SVGID_7_" gradientUnits="userSpaceOnUse" x1="1824.2966" y1="479.2237" x2="1853.1674" y2="479.2237">
		<stop  offset="0" style="stop-color:#9C27B0"/>
		<stop  offset="0.9949" style="stop-color:#EF5350"/>
	</linearGradient>
	<path fill="url(#SVGID_7_)" d="M1850.5,493.5c1.4,0.4,2.8-0.7,2.6-2.2c-0.1-1-0.3-2-0.5-2.9c-0.7-3.3-2-6.6-2.7-9.9
		c-0.6-3.1-0.8-6.2-0.7-9.3c0.1-2.8-2.8-5-5.6-4.1c-3,1-6.6,1.3-9.8,1.6c-2.6,0.3-5.2,0.7-7.8,1.2c-1.2,0.3-2,1.4-1.7,2.6
		c2.1,7.7,4.5,13.1,6.9,14.3C1836.6,488.6,1843,491.5,1850.5,493.5C1850.5,493.5,1850.5,493.5,1850.5,493.5z"/>
</g>
</svg>
