<?xml version="1.0" encoding="utf-8"?>
<svg version="1.1" xmlns="http://www.w3.org/2000/svg"
	 width="500px" height="283.7px" viewBox="1862.7 -243.9 500 283.7">
	<defs>
		<style>
			stop[offset="0"] {
				-webkit-animation: color 6s ease-in-out infinite;
						animation: color 6s ease-in-out infinite;
			}
			
			
			@-webkit-keyframes color {
			100%, 0% {
				stop-color: #ef5350;
			}
			40% {
				stop-color: #0057e7;
			}
			66% {
				stop-color: #008744;
			}
			80%, 90% {
				stop-color: #ffa700;
			}
			}
			@keyframes color {
			100%, 0% {
				stop-color: #ef5350;
			}
			40% {
				stop-color: #0057e7;
			}
			66% {
				stop-color: #008744;
			}
			80%, 90% {
				stop-color: #ffa700;
			}
			}
			
		</style>
	</defs>
<g>
	<path fill="#333333" d="M1916.4-28.7L1897,1.6h-4l-19.3-30.3v44.3h-11v-66.7h8.2l24.2,36.7l24.1-36.7h8.2v66.7h-11V-28.7z"/>
	<path fill="#333333" d="M1977.4,15.6c-0.9,0.4-2.5,0.5-3.8,0.5c-4.5,0-7.5-2-9-5.2c-3.6,3.6-8.5,5.6-13.4,5.6
		c-9,0-13.8-6.5-13.8-13.3c0-10.2,10.7-15.7,22.2-15.7c2.2,0,3.2,0.2,3.9,0.3v-3.8c0-3.9-3-7.7-8.5-7.7c-3.5,0-7.7,1.6-9.8,3.7
		l-5.7-5.7c4.1-4,9.8-6.6,16.6-6.6c11.2,0,18,7,18,16.3V5c0,2.2,1.4,3.6,3.4,3.6V15.6z M1963.4,4v-9.2c-0.8-0.2-1.7-0.3-3-0.3
		c-6.8,0-12.5,2.9-12.5,7.5c0,2.6,1.8,5.9,6.6,5.9C1957.3,7.9,1961,6.6,1963.4,4z"/>
	<path fill="#333333" d="M1982.1-31.5h5.6V-42h11v10.5h11v8.3h-11v22.9c0,4.7,2.9,7.8,7.2,7.8c1.3,0,2.7-0.3,3.8-0.9v8.8
		c-1.8,0.9-3.8,1-5.7,1c-10.1,0-16.4-6.6-16.4-16.8v-22.9h-5.6V-31.5z"/>
	<path fill="#333333" d="M2043.7-32v9.2c-1.2-0.4-2.6-0.5-3.8-0.5c-4.7,0-8.6,2.5-11,6.1v32.8h-10.7v-47.1h10.7v5
		c3.2-3.5,7.3-5.7,11.7-5.7C2041.7-32.2,2042.7-32.1,2043.7-32z"/>
	<path fill="#333333" d="M2060.4-4.9c1,7.2,6.1,11.9,14.2,11.9c4.7,0,8.4-1.4,10.9-4.1l6.3,6.5c-4.3,4.5-10.4,7-17.9,7
		c-14.8,0-24.8-9.8-24.8-24.8c0-14.2,9.1-24.1,22.9-24.1c14.1,0,21.9,10.4,21.9,27.5H2060.4z M2060.4-12.2h22.9c-1-6.7-4.6-11-11-11
		S2061.4-18.9,2060.4-12.2z"/>
	<path fill="#333333" d="M2124.7-19.9c-1.8-1.9-5-3.6-7.9-3.6c-3.8,0-5.3,3-5.3,5c0,8.3,20.7,5.7,20.7,20.2
		c0,7.7-5.7,14.8-16.5,14.8c-6.3,0-12.3-2.5-16.3-6.8l6.5-6.6c2.2,2.7,5.7,4.6,9.1,4.6c4.7,0,6.6-3.4,6.6-5.9
		c0-7.9-20.7-5-20.7-20.1c0-7.3,5-14.1,15-14.1c5.8,0,11.4,2.1,15.3,6L2124.7-19.9z"/>
	<path fill="#333333" d="M2151.7-55.8V-28c3.5-2.9,8-4.4,13-4.4c10.9,0,17.6,8,17.6,19.8v28.2h-10.6v-28.2c0-6.1-3.8-10.4-9.7-10.4
		c-4.4,0-7.8,1.4-10.3,3.9v34.7H2141v-71.4H2151.7z"/>
	<path fill="#333333" d="M2193.6,15.6v-71.4h10.7v44l16.1-19.7h12.7l-18.4,22l20.4,25.1h-12.5l-18.3-22.8v22.8H2193.6z"/>
	<path fill="#333333" d="M2278.7,15.6c-0.9,0.4-2.5,0.5-3.8,0.5c-4.5,0-7.5-2-9-5.2c-3.6,3.6-8.5,5.6-13.4,5.6
		c-9,0-13.8-6.5-13.8-13.3c0-10.2,10.7-15.7,22.2-15.7c2.2,0,3.2,0.2,3.9,0.3v-3.8c0-3.9-3-7.7-8.5-7.7c-3.5,0-7.7,1.6-9.8,3.7
		l-5.7-5.7c4.1-4,9.8-6.6,16.6-6.6c11.2,0,18,7,18,16.3V5c0,2.2,1.4,3.6,3.4,3.6V15.6z M2264.7,4v-9.2c-0.8-0.2-1.7-0.3-3-0.3
		c-6.8,0-12.5,2.9-12.5,7.5c0,2.6,1.8,5.9,6.6,5.9C2258.6,7.9,2262.4,6.6,2264.7,4z"/>
	<path fill="#333333" d="M2294.2,3.8c3.5,0,6.4,2.8,6.4,6.4c0,3.5-2.9,6.3-6.4,6.3c-3.5,0-6.3-2.8-6.3-6.3
		C2287.9,6.5,2290.7,3.8,2294.2,3.8z"/>
	<path fill="#333333" d="M2306,32.4c3,0,5-1.8,5-5v-58.9h10.7v59.2c0,7.3-4.1,12.2-11.5,12.2c-1.4,0-3.2-0.1-4.2-0.5V32.4z
		 M2316.4-52.1c3.6,0,6.6,2.9,6.6,6.4c0,3.6-3,6.6-6.6,6.6s-6.4-3-6.4-6.6C2310-49.3,2312.8-52.1,2316.4-52.1z"/>
	<path fill="#333333" d="M2355.2-19.9c-1.8-1.9-5-3.6-7.9-3.6c-3.8,0-5.3,3-5.3,5c0,8.3,20.7,5.7,20.7,20.2
		c0,7.7-5.7,14.8-16.5,14.8c-6.3,0-12.3-2.5-16.3-6.8l6.5-6.6c2.2,2.7,5.7,4.6,9.1,4.6c4.7,0,6.6-3.4,6.6-5.9
		c0-7.9-20.7-5-20.7-20.1c0-7.3,5-14.1,15-14.1c5.8,0,11.4,2.1,15.3,6L2355.2-19.9z"/>
</g>
<g>
	<path fill="#333333" d="M2139.1-160.9c-1.7-8.3-5.5-12.8-4.7-23.3c1.1-14.3-0.6-17.9-1.7-20.2c-1-2.3-2.5-4.3-4.4-6.1
		c-1.9-1.7-4.2-3.1-6.9-4.1c-2.7-1-5.5-1.5-8.8-1.5v0v0c-3.4,0-6.1,0.5-8.8,1.5c-2.7,1-5,2.4-6.9,4.1c-1.9,1.7-3.4,3.7-4.4,6.1
		c-1,2.3-2.8,5.9-1.7,20.2c0.8,10.4-2.9,14.9-4.7,23.3c-3.5,16.8,0.8,41.2,4.5,43.3c2.7,2,5.9,3.5,9.6,4.5c3.7,1,8,1.6,12.3,1.6v0v0
		c4.3,0,8.6-0.5,12.3-1.6c3.7-1,6.9-2.6,9.6-4.5C2138.3-119.7,2142.6-144.1,2139.1-160.9z"/>
	<linearGradient id="SVGID_1_" gradientUnits="userSpaceOnUse" x1="2113.8308" y1="-110.1257" x2="2156.9922" y2="-110.1257">
		<stop  offset="0" style="stop-color:#FFEB3B"/>
		<stop  offset="1" style="stop-color:#66BB6A"/>
	</linearGradient>
	<path fill="url(#SVGID_1_)" d="M2140.8-128.6c-13.9,2.7-30,8.7-33.1,22.5c-2.4,10.6,0.9,20.1,11.1,22.2c4.5-0.3,8.9-1.1,12.8-2.2
		c5.7-1.6,10.6-3.9,14.7-6.9c4.2-2.3,8.7-22.2,8.9-42.9c0-0.5-0.7-0.8-1-0.4C2150.9-132.3,2145.9-129.6,2140.8-128.6z"/>
	<linearGradient id="SVGID_2_" gradientUnits="userSpaceOnUse" x1="2078.9771" y1="-226.5332" x2="2145.3706" y2="-226.5332">
		<stop  offset="0" style="stop-color:#FFEB3B"/>
		<stop  offset="1" style="stop-color:#66BB6A"/>
	</linearGradient>
	<path fill="url(#SVGID_2_)" d="M2079-214.7c4.5,12.8,26.5,0,41.2-4.3c7.4-2.1,16.4-3.8,22.6-1.3c0.3,0.1,0.6,0.3,0.9,0.4
		c0.9,0.5,1.9-0.2,1.6-1.2c-0.6-2.3-1.3-3.8-1.8-5c-1.6-3.5-3.8-6.6-6.7-9.3c-2.9-2.6-6.5-4.7-10.6-6.3c-4.2-1.5-8.4-2.3-13.5-2.3v0
		v0c-5.2,0-9.4,0.8-13.5,2.3c-4.1,1.5-7.7,3.6-10.6,6.3c-2.9,2.6-5.2,5.7-6.7,9.3C2080.9-223.9,2079.6-221.2,2079-214.7L2079-214.7z
		"/>
	<linearGradient id="SVGID_3_" gradientUnits="userSpaceOnUse" x1="2097.8896" y1="-173.5782" x2="2155.7131" y2="-173.5782">
		<stop  offset="0" style="stop-color:#FFEB3B"/>
		<stop  offset="1" style="stop-color:#66BB6A"/>
	</linearGradient>
	<path fill="url(#SVGID_3_)" d="M2122.3-151c7.7-1.5,15-6.2,22.8-6.1c2.9,0,5.3,0.3,7.3,1.2c0.7,0.3,1.4-0.3,1.3-1
		c-0.1-0.8-0.3-1.6-0.5-2.4c-2.7-12.8-8.4-19.7-7.1-35.7c0-0.5,0.1-1,0.1-1.5c0-0.6-0.7-0.9-1.1-0.5c-2,2.3-4.8,4.3-8.6,5.6
		c-12.5,4.2-26.2,4.8-36.1,12.7C2087.8-168.7,2089-144.7,2122.3-151z"/>
	<linearGradient id="SVGID_4_" gradientUnits="userSpaceOnUse" x1="2070.1172" y1="-159.8091" x2="2111.9456" y2="-159.8091">
		<stop  offset="0" style="stop-color:#00BCD4"/>
		<stop  offset="1" style="stop-color:#9C27B0"/>
	</linearGradient>
	<path fill="url(#SVGID_4_)" d="M2105.8-141.8c-14.5,0-21.1-4.1-25.5-11.4c-2.7-4.5-1.8-18.5,9.2-29.4c2.8-2.8,6.5-4.7,8.8-7.9
		c2.3-3.2,3-8.1,0.1-10.9c-4.6-0.9-9.1,1-13.6,2.2c-1.9,0.5-3.4,0.7-4.7,0.2c-0.5-0.2-1.1,0.2-1.1,0.8c0.1,1,0.1,2,0.2,3.1
		c1.3,16-4.5,22.9-7.1,35.7c-2.2,10.5-2.4,23-1.5,34.3c0.1,1.7,1.1,3.2,2.6,4.1c5.3,3.1,12.2,3.9,17.5,0.9
		c4.8-2.7,7.7-8.1,12.7-10.4C2115.2-135.7,2113.6-141.8,2105.8-141.8z"/>
	<linearGradient id="SVGID_5_" gradientUnits="userSpaceOnUse" x1="2111.5581" y1="-205.1214" x2="2135.6897" y2="-205.1214">
		<stop  offset="0" style="stop-color:#9C27B0"/>
		<stop  offset="1" style="stop-color:#FFEB3B"/>
	</linearGradient>
	<path fill="url(#SVGID_5_)" d="M2112.7-201c-1.3-0.8-1.4-2.4-0.6-3.5c0.8-1.1,2.3-1.9,3.8-2.5c5.7-2.4,12.4-3.4,18.9-2.7
		c1.2,1,1.2,2.6,0.4,3.8c-0.8,1.2-2.3,2.1-3.9,2.8c-4.6,2.1-10,3.1-15.4,2.9C2114.7-200.3,2113.5-200.5,2112.7-201z"/>
	<linearGradient id="SVGID_6_" gradientUnits="userSpaceOnUse" x1="2123.9299" y1="-144.231" x2="2155.1011" y2="-144.231">
		<stop  offset="0" style="stop-color:#9C27B0"/>
		<stop  offset="1" style="stop-color:#FFEB3B"/>
	</linearGradient>
	<path fill="url(#SVGID_6_)" d="M2154.6-150.5c-0.1-0.6-0.5-1-1.1-1.1c-0.3,0-0.6,0-1,0c-8.4-0.1-16.9,2.3-24.1,6.6
		c-2.3,1.4-4.7,3.4-4.4,6.1c0,0.6,0.3,1.2,0.7,1.5c1.1,1,2.4,0.3,3.6-0.1c2.1-0.8,4.3-1,6.5-1.2c4.3-0.4,8.5-0.8,12.8-1.2
		c2.3-0.2,4.6-0.4,6.7-1.5c0,0,0,0,0,0c0.6-0.3,1-1,0.9-1.7C2155-145.6,2154.8-148.1,2154.6-150.5z"/>
	<linearGradient id="SVGID_7_" gradientUnits="userSpaceOnUse" x1="2073.8137" y1="-97.4293" x2="2096.9104" y2="-97.4293">
		<stop  offset="0" style="stop-color:#9C27B0"/>
		<stop  offset="0.9949" style="stop-color:#EF5350"/>
	</linearGradient>
	<path fill="url(#SVGID_7_)" d="M2094.8-86c1.1,0.3,2.2-0.6,2.1-1.7c-0.1-0.8-0.2-1.6-0.4-2.3c-0.6-2.7-1.6-5.3-2.1-7.9
		c-0.5-2.5-0.6-5-0.6-7.5c0-2.3-2.3-4-4.5-3.2c-2.4,0.8-5.2,1-7.8,1.3c-2.1,0.2-4.2,0.5-6.3,1c-1,0.2-1.6,1.1-1.4,2.1
		c1.6,6.2,3.6,10.4,5.5,11.4C2083.7-89.9,2088.8-87.6,2094.8-86C2094.8-86,2094.8-86,2094.8-86z"/>
</g>
</svg>
